<?xml version="1.0" encoding="utf-8"?>
<!-- Generator: Adobe Illustrator 24.0.1, SVG Export Plug-In . SVG Version: 6.00 Build 0)  -->
<svg version="1.1" id="_x31__px" xmlns="http://www.w3.org/2000/svg" xmlns:xlink="http://www.w3.org/1999/xlink" x="0px" y="0px"
	 viewBox="0 0 512 512" style="enable-background:new 0 0 512 512;" xml:space="preserve">
<style type="text/css">
	.st0{fill:#E41B23;}
</style>
<path class="st0" d="M192.4,448H53.3C23.9,448,0,424.1,0,394.7V53.3C0,23.9,23.9,0,53.3,0h256c29.4,0,53.3,23.9,53.3,53.3v129.3
	c0,5.9-4.8,10.7-10.7,10.7c-5.9,0-10.7-4.8-10.7-10.7V53.3c0-17.6-14.4-32-32-32h-256c-17.6,0-32,14.4-32,32v341.3
	c0,17.6,14.4,32,32,32h139.1c5.9,0,10.7,4.8,10.7,10.7S198.3,448,192.4,448z"/>
<path class="st0" d="M288,192H74.7c-5.9,0-10.7-4.8-10.7-10.7s4.8-10.7,10.7-10.7H288c5.9,0,10.7,4.8,10.7,10.7S293.9,192,288,192z"
	/>
<path class="st0" d="M202.7,277.3h-128c-5.9,0-10.7-4.8-10.7-10.7S68.8,256,74.7,256h128c5.9,0,10.7,4.8,10.7,10.7
	S208.6,277.3,202.7,277.3z"/>
<path class="st0" d="M181.3,106.7H74.7c-5.9,0-10.7-4.8-10.7-10.7s4.8-10.7,10.7-10.7h106.7c5.9,0,10.7,4.8,10.7,10.7
	S187.2,106.7,181.3,106.7z"/>
<path class="st0" d="M373.3,512c-76.5,0-138.7-62.2-138.7-138.7s62.2-138.7,138.7-138.7S512,296.9,512,373.3S449.8,512,373.3,512z
	 M373.3,256C308.6,256,256,308.7,256,373.3s52.6,117.3,117.3,117.3S490.7,438,490.7,373.3S438,256,373.3,256z"/>
<path class="st0" d="M373.3,448c-5.9,0-10.7-4.8-10.7-10.7v-128c0-5.9,4.8-10.7,10.7-10.7s10.7,4.8,10.7,10.7v128
	C384,443.2,379.2,448,373.3,448z"/>
<path class="st0" d="M437.3,384h-128c-5.9,0-10.7-4.8-10.7-10.7s4.8-10.7,10.7-10.7h128c5.9,0,10.7,4.8,10.7,10.7
	S443.2,384,437.3,384z"/>
</svg>
